<svg id="svg" version="1.1" xmlns="http://www.w3.org/2000/svg" xmlns:xlink="http://www.w3.org/1999/xlink" width="400" height="400" viewBox="0, 0, 400,400"><g id="svgg"><path id="path0" d="M102.000 117.564 C 100.350 117.933,98.190 118.710,97.200 119.291 C 96.043 119.971,94.059 120.580,91.645 120.996 C 89.287 121.403,86.981 122.103,85.445 122.879 C 83.946 123.637,81.272 124.459,78.531 125.004 C 75.628 125.582,73.682 126.192,72.978 126.746 C 71.726 127.731,70.299 128.157,65.372 129.016 C 63.206 129.394,61.497 129.923,61.006 130.368 C 59.703 131.551,58.830 131.872,54.400 132.801 C 51.844 133.337,49.652 134.051,48.800 134.626 C 48.016 135.154,45.497 136.019,43.076 136.591 C 40.697 137.153,37.703 138.142,36.421 138.789 C 35.140 139.436,33.216 140.168,32.146 140.416 C 28.163 141.339,28.270 141.166,28.590 146.192 C 29.059 153.537,29.852 159.354,30.574 160.750 C 31.673 162.875,32.331 166.875,33.003 175.515 C 33.518 182.132,33.849 184.318,34.818 187.504 C 35.629 190.172,36.189 193.290,36.595 197.400 C 37.609 207.670,37.940 209.937,38.564 210.889 C 39.576 212.434,40.358 216.327,40.795 222.000 C 41.321 228.835,41.847 231.490,42.772 231.985 C 43.807 232.539,46.027 232.576,47.308 232.060 C 47.917 231.815,49.616 231.336,51.082 230.995 C 52.549 230.655,54.562 229.838,55.556 229.180 C 57.293 228.029,60.625 226.800,62.007 226.800 C 62.371 226.800,63.463 226.184,64.434 225.431 C 65.759 224.404,67.112 223.849,69.852 223.209 C 72.039 222.698,74.046 221.956,74.852 221.360 C 75.594 220.813,77.703 219.896,79.540 219.323 C 81.377 218.750,83.359 217.878,83.944 217.386 C 85.375 216.181,87.334 215.403,90.965 214.595 C 92.634 214.224,94.000 213.755,94.000 213.554 C 94.000 212.854,96.588 211.621,99.385 210.990 C 100.933 210.641,102.830 209.926,103.600 209.400 C 105.228 208.289,106.557 207.745,109.600 206.944 C 110.810 206.625,112.502 205.902,113.361 205.337 C 114.219 204.771,116.427 203.799,118.266 203.178 C 120.105 202.556,122.103 201.700,122.705 201.276 C 123.307 200.852,124.246 200.366,124.791 200.197 C 128.211 199.133,128.854 197.811,128.000 193.600 C 127.799 192.610,127.349 188.560,127.000 184.600 C 126.045 173.750,126.436 174.057,113.846 174.244 L 105.492 174.368 105.743 172.284 C 105.880 171.138,105.995 169.685,105.997 169.055 C 106.000 168.006,106.103 167.924,107.217 168.088 C 108.063 168.212,108.377 168.118,108.248 167.780 C 108.030 167.212,108.582 153.365,109.181 144.386 C 109.409 140.968,109.689 133.978,109.804 128.851 C 109.978 121.056,110.116 119.427,110.648 118.895 C 112.289 117.254,107.017 116.443,102.000 117.564 M113.600 165.951 C 113.600 166.455,113.345 166.800,112.973 166.800 C 112.323 166.800,112.394 167.370,113.324 169.600 C 113.716 170.541,113.755 170.494,113.981 168.800 C 114.113 167.810,114.349 166.795,114.506 166.545 C 114.663 166.295,114.523 165.868,114.196 165.596 C 113.700 165.185,113.600 165.245,113.600 165.951 M320.600 287.382 C 312.995 288.516,308.224 289.940,306.509 291.587 C 305.631 292.431,304.344 293.415,303.649 293.775 C 302.899 294.162,301.778 295.420,300.893 296.867 C 300.072 298.209,299.026 299.778,298.569 300.353 C 295.323 304.443,295.990 327.212,299.451 330.441 C 300.016 330.969,300.822 332.071,301.243 332.892 C 301.664 333.712,302.553 334.665,303.219 335.010 C 303.885 335.354,304.727 336.258,305.089 337.018 C 305.452 337.778,305.984 338.400,306.272 338.400 C 307.262 338.400,311.800 340.125,313.313 341.076 C 315.428 342.405,321.298 342.890,332.775 342.684 C 342.773 342.505,341.631 342.741,347.500 339.640 L 350.000 338.319 350.000 327.937 C 350.000 315.303,349.806 314.204,347.453 313.536 C 345.679 313.032,330.315 313.033,327.400 313.537 L 325.800 313.814 325.800 316.207 L 325.800 318.600 329.700 318.878 C 334.144 319.195,335.414 319.672,336.631 321.478 C 339.205 325.304,337.458 334.735,333.948 335.958 C 330.854 337.037,321.569 336.190,320.191 334.704 C 319.643 334.113,318.431 333.430,317.497 333.186 C 315.785 332.738,311.200 328.503,311.200 327.368 C 311.200 327.100,310.640 325.828,309.956 324.541 C 307.371 319.674,307.030 311.519,309.220 306.925 C 309.869 305.564,310.400 304.136,310.400 303.751 C 310.400 302.463,312.071 299.584,313.141 299.028 C 313.723 298.726,314.608 297.923,315.107 297.246 C 317.024 294.641,323.741 293.542,329.913 294.823 C 332.478 295.356,336.558 298.523,337.460 300.681 L 338.038 302.066 342.855 301.933 C 348.792 301.769,351.258 299.587,348.415 297.014 C 347.983 296.623,347.430 295.698,347.186 294.958 C 346.942 294.219,346.170 293.225,345.471 292.750 C 344.772 292.275,343.750 291.372,343.200 290.744 C 342.323 289.742,341.571 289.476,337.104 288.592 C 334.302 288.037,331.545 287.407,330.978 287.192 C 329.645 286.685,324.664 286.776,320.600 287.382 M44.941 289.379 C 43.152 290.158,43.071 290.987,43.007 309.200 C 42.945 327.074,43.354 339.423,44.061 340.975 C 44.744 342.474,44.637 342.466,63.102 342.327 L 79.933 342.200 80.797 341.203 C 81.861 339.977,81.672 338.654,80.060 336.043 L 78.923 334.200 73.961 334.165 C 67.175 334.117,57.967 333.425,56.962 332.887 C 55.065 331.871,55.107 332.354,55.022 310.900 C 54.939 289.837,54.910 289.430,53.472 289.045 C 51.835 288.606,46.212 288.826,44.941 289.379 M183.945 289.425 L 182.090 290.021 181.852 296.311 C 181.475 306.265,181.739 339.108,182.200 339.502 C 186.436 343.125,193.449 343.201,194.378 339.635 C 194.942 337.469,194.722 290.162,194.145 289.585 C 193.403 288.843,186.111 288.729,183.945 289.425 " stroke="none" fill="#4a8da0" fill-rule="evenodd"></path><path id="path1" d="M121.354 77.606 C 118.871 77.856,118.310 78.288,117.021 80.940 C 116.470 82.073,115.655 83.627,115.210 84.394 C 114.644 85.367,114.398 86.514,114.393 88.194 C 114.389 89.517,114.208 92.288,113.991 94.350 C 113.596 98.099,113.955 101.071,114.871 101.642 C 115.096 101.782,114.975 102.168,114.585 102.558 C 114.208 102.935,113.629 104.725,113.271 106.624 L 112.631 110.016 109.939 112.017 C 106.907 114.272,105.332 114.924,100.257 116.021 C 98.309 116.443,96.104 117.165,95.357 117.627 C 94.610 118.088,91.795 118.976,89.100 119.599 C 86.405 120.223,83.015 121.291,81.567 121.973 C 80.118 122.655,77.508 123.485,75.767 123.817 C 74.025 124.150,71.436 124.966,70.013 125.631 C 68.590 126.296,65.536 127.286,63.228 127.831 C 60.919 128.377,58.270 129.269,57.340 129.814 C 56.409 130.359,53.733 131.258,51.392 131.811 C 49.051 132.364,46.416 133.183,45.538 133.631 C 44.660 134.079,41.860 134.990,39.316 135.656 C 34.801 136.836,27.019 140.172,26.047 141.343 C 25.667 141.801,25.777 143.226,26.561 148.062 C 27.109 151.438,27.850 156.360,28.207 159.000 C 28.564 161.640,29.303 165.690,29.849 168.000 C 30.394 170.310,31.274 176.352,31.803 181.427 C 32.489 187.999,32.993 191.183,33.554 192.493 C 34.384 194.430,35.281 199.948,36.003 207.565 C 36.285 210.539,36.842 213.365,37.603 215.672 C 38.426 218.172,39.033 221.413,39.664 226.686 C 40.819 236.347,41.907 237.325,48.023 234.203 C 49.026 233.691,51.456 232.790,53.423 232.200 C 55.390 231.609,57.633 230.719,58.406 230.220 C 59.179 229.721,61.249 228.818,63.006 228.212 C 64.763 227.607,66.920 226.744,67.800 226.296 C 68.680 225.848,70.910 224.971,72.756 224.347 C 74.602 223.723,76.760 222.830,77.552 222.363 C 78.345 221.896,80.254 221.062,81.796 220.510 C 83.338 219.959,85.680 218.912,87.000 218.184 C 88.320 217.456,90.566 216.561,91.991 216.196 C 94.849 215.462,95.807 215.043,97.000 214.002 C 97.440 213.618,99.145 212.981,100.788 212.587 C 102.431 212.193,105.042 211.200,106.589 210.380 C 108.137 209.560,110.375 208.601,111.564 208.248 C 112.752 207.895,114.667 207.074,115.820 206.424 C 116.972 205.773,119.717 204.614,121.919 203.847 C 125.583 202.572,129.450 200.373,130.700 198.855 C 131.430 197.968,131.322 196.556,130.192 192.207 C 128.690 186.426,127.837 178.058,128.551 176.111 C 129.870 172.512,130.092 171.998,130.339 171.969 C 130.483 171.953,130.870 171.888,131.200 171.827 C 133.270 171.441,140.222 171.016,145.000 170.983 C 161.922 170.865,184.900 169.471,188.325 168.354 C 190.143 167.761,190.398 166.825,190.415 160.674 C 190.449 148.715,191.180 143.832,193.269 141.610 C 194.186 140.635,194.201 140.468,194.290 130.869 C 194.386 120.443,195.197 114.971,197.222 111.073 C 198.387 108.831,198.922 104.115,198.615 98.800 C 198.408 95.204,198.488 93.676,198.986 91.800 C 199.336 90.480,199.734 87.741,199.870 85.713 L 200.119 82.025 199.033 81.613 C 198.436 81.386,195.390 81.200,192.264 81.200 C 180.192 81.200,153.480 79.577,148.565 78.544 C 145.580 77.917,125.232 77.216,121.354 77.606 M115.503 113.300 C 115.966 113.795,116.701 115.485,117.135 117.056 C 117.569 118.626,118.102 120.246,118.320 120.656 C 118.906 121.761,120.287 129.207,120.795 134.000 C 121.039 136.310,121.667 140.000,122.189 142.200 C 123.253 146.681,124.064 151.839,125.049 160.384 C 125.443 163.813,126.014 166.827,126.449 167.784 C 127.026 169.055,127.186 170.425,127.199 174.200 C 127.220 179.976,128.118 189.616,128.970 193.200 C 130.233 198.514,128.564 200.508,120.599 203.200 C 118.711 203.839,116.229 204.888,115.083 205.532 C 113.937 206.176,112.010 207.020,110.800 207.408 C 109.590 207.795,107.250 208.782,105.600 209.601 C 103.950 210.419,101.610 211.318,100.400 211.598 C 98.044 212.143,96.208 212.939,95.133 213.881 C 94.765 214.202,93.067 214.823,91.357 215.261 C 88.210 216.068,86.296 216.864,85.193 217.826 C 84.860 218.117,82.970 218.973,80.993 219.729 C 79.017 220.484,76.770 221.474,76.000 221.929 C 75.230 222.383,73.070 223.236,71.200 223.824 C 69.330 224.413,66.810 225.388,65.600 225.992 C 64.390 226.596,62.680 227.320,61.800 227.601 C 60.920 227.883,58.850 228.785,57.200 229.606 C 55.550 230.427,52.963 231.399,51.451 231.766 C 49.940 232.133,48.012 232.786,47.167 233.217 C 44.438 234.609,42.112 234.308,41.637 232.500 C 41.245 231.007,40.300 224.772,39.772 220.200 C 39.620 218.880,38.984 216.129,38.359 214.087 C 37.549 211.443,36.979 208.103,36.378 202.487 C 35.782 196.915,35.248 193.778,34.560 191.800 C 33.615 189.082,33.030 184.942,31.997 173.665 C 31.748 170.951,31.020 166.631,30.378 164.065 C 29.736 161.499,29.106 158.500,28.977 157.400 C 28.849 156.300,28.478 153.597,28.153 151.393 C 27.172 144.750,27.474 141.688,29.200 140.767 C 32.323 139.102,37.222 137.213,41.000 136.219 C 43.200 135.640,45.960 134.727,47.132 134.190 C 48.305 133.654,50.825 132.846,52.732 132.396 C 54.640 131.945,57.301 131.048,58.647 130.401 C 59.994 129.755,63.008 128.774,65.347 128.222 C 67.685 127.669,70.358 126.830,71.287 126.356 C 72.216 125.882,74.964 125.003,77.393 124.402 C 79.823 123.801,82.709 122.855,83.806 122.301 C 84.903 121.747,87.926 120.827,90.524 120.257 C 93.153 119.680,95.753 118.861,96.385 118.411 C 97.010 117.966,98.844 117.340,100.461 117.020 C 107.845 115.558,109.427 115.101,111.562 113.813 C 114.266 112.182,114.436 112.160,115.503 113.300 M345.061 169.599 C 342.432 170.068,342.257 170.398,344.633 170.410 C 345.715 170.415,347.320 170.587,348.200 170.792 C 349.757 171.155,351.407 170.474,350.696 169.763 C 350.261 169.327,347.101 169.236,345.061 169.599 M244.400 228.850 C 225.902 233.844,220.263 237.998,229.000 240.195 C 230.540 240.582,234.140 241.672,237.000 242.618 C 239.860 243.564,244.540 244.812,247.400 245.390 C 250.260 245.969,253.368 246.613,254.306 246.821 C 258.554 247.764,266.388 246.953,270.526 245.142 C 272.025 244.485,274.725 243.588,276.526 243.148 C 279.496 242.422,279.957 242.173,281.492 240.474 C 283.766 237.955,283.738 237.903,279.500 236.643 C 277.465 236.037,275.245 235.219,274.567 234.825 C 272.894 233.849,271.038 233.268,266.880 232.416 C 264.945 232.020,262.381 231.193,261.181 230.580 C 257.480 228.686,248.454 227.756,244.400 228.850 M256.464 231.425 C 258.535 232.215,261.870 233.100,263.953 233.413 C 267.125 233.889,268.088 234.222,270.154 235.556 C 271.499 236.425,273.372 237.339,274.317 237.588 L 276.033 238.040 274.422 239.870 C 270.152 244.721,261.475 246.763,255.029 244.433 C 253.253 243.791,251.170 243.141,250.400 242.987 C 249.630 242.834,248.010 242.299,246.800 241.798 C 245.590 241.298,243.250 240.580,241.600 240.204 C 235.095 238.719,233.571 238.063,233.854 236.868 C 234.273 235.106,235.911 234.109,239.900 233.188 C 241.935 232.718,244.995 231.829,246.700 231.212 C 250.834 229.717,252.058 229.743,256.464 231.425 M318.105 284.402 C 316.733 284.594,314.573 285.209,313.305 285.770 C 312.037 286.332,309.816 287.150,308.369 287.590 C 306.418 288.183,305.245 288.856,303.827 290.195 C 302.776 291.188,301.785 292.000,301.625 292.000 C 301.294 292.000,297.165 297.370,296.408 298.785 C 296.134 299.296,295.469 301.264,294.931 303.158 C 294.392 305.051,293.682 307.500,293.354 308.600 C 291.670 314.237,294.451 329.126,297.961 333.271 C 300.462 336.224,304.142 339.598,305.800 340.460 C 306.680 340.917,307.957 341.709,308.638 342.219 C 314.231 346.408,347.735 345.816,350.962 341.471 C 352.630 339.225,352.630 314.946,350.962 312.679 C 349.043 310.071,327.673 309.927,324.899 312.504 C 322.651 314.592,323.138 319.338,325.800 321.294 C 326.020 321.456,327.190 321.605,328.400 321.626 C 334.076 321.725,335.852 323.280,335.424 327.772 C 335.005 332.163,333.810 332.948,327.699 332.851 C 318.202 332.701,311.777 327.833,311.631 320.677 C 311.614 319.839,311.401 317.947,311.157 316.473 C 309.534 306.643,315.072 297.241,323.113 296.174 C 327.717 295.563,329.909 296.442,333.820 300.466 L 337.307 304.054 343.613 303.927 C 350.857 303.781,351.376 303.568,351.827 300.559 C 352.183 298.186,351.916 297.360,349.753 294.156 C 346.119 288.773,343.589 287.075,335.800 284.791 C 333.801 284.205,321.458 283.933,318.105 284.402 M337.800 286.382 C 344.260 288.499,346.011 289.777,349.268 294.751 C 353.496 301.210,351.731 303.606,342.754 303.594 C 337.506 303.587,337.995 303.801,333.814 299.672 C 329.648 295.557,325.910 294.601,320.393 296.239 C 314.039 298.126,308.876 308.364,310.352 316.148 C 310.567 317.276,310.852 319.190,310.986 320.400 C 311.837 328.087,316.989 332.695,325.800 333.648 C 333.481 334.479,335.994 332.741,335.996 326.600 C 335.998 322.677,334.094 321.023,329.051 320.566 C 324.594 320.162,322.751 317.495,324.517 314.000 C 325.516 312.023,334.639 310.898,344.018 311.595 C 351.561 312.156,351.280 311.591,351.513 326.638 C 351.729 340.626,351.559 341.430,348.143 342.537 C 338.727 345.588,314.135 344.767,308.351 341.208 C 307.272 340.544,306.196 340.000,305.962 340.000 C 305.456 340.000,298.408 332.998,297.490 331.584 C 293.158 324.906,292.948 307.099,297.107 299.000 C 299.419 294.497,304.962 289.458,309.000 288.187 C 310.760 287.633,313.122 286.813,314.249 286.364 C 319.497 284.275,331.397 284.284,337.800 286.382 M184.355 285.929 C 179.391 287.413,179.661 285.784,179.572 314.831 C 179.475 346.553,178.722 344.091,188.518 344.077 C 197.277 344.065,196.969 345.395,196.717 308.600 L 196.587 289.800 195.594 288.026 C 194.475 286.029,194.019 285.836,189.600 285.492 C 187.390 285.319,186.009 285.434,184.355 285.929 M45.248 286.014 C 42.989 286.481,41.779 287.293,40.948 288.901 C 40.170 290.405,40.011 339.724,40.777 341.739 C 41.656 344.050,42.525 344.187,57.200 344.332 C 84.309 344.599,84.260 344.611,83.891 337.911 C 83.567 332.031,83.678 332.078,70.074 332.029 C 62.794 332.003,61.749 331.914,60.032 331.176 L 58.116 330.352 57.858 326.714 C 57.716 324.714,57.600 315.716,57.600 306.719 C 57.600 288.854,57.657 289.328,55.210 287.000 C 53.814 285.673,49.136 285.209,45.248 286.014 M191.184 286.941 C 195.245 287.594,195.447 287.966,195.980 295.814 C 196.765 307.346,196.221 336.644,195.143 340.918 C 194.563 343.213,190.232 344.176,184.904 343.193 C 180.121 342.311,180.326 343.371,180.181 318.800 C 180.024 292.318,180.305 288.911,182.724 287.922 C 186.351 286.440,187.350 286.324,191.184 286.941 M53.478 287.217 C 56.794 288.373,56.800 288.415,56.909 310.858 C 57.023 334.286,55.825 332.168,69.212 332.603 C 82.696 333.042,82.375 332.939,83.014 337.014 C 83.967 343.088,83.907 343.126,72.464 343.642 C 51.852 344.571,42.857 343.948,41.548 341.503 C 40.672 339.867,40.816 290.848,41.700 289.497 C 43.224 287.169,49.728 285.910,53.478 287.217 " stroke="none" fill="#9ec4d0" fill-rule="evenodd"></path><path id="path2" d="M0.000 200.000 L 0.000 400.000 200.000 400.000 L 400.000 400.000 400.000 200.000 L 400.000 0.000 200.000 0.000 L 0.000 0.000 0.000 200.000 M264.024 55.856 C 268.166 59.389,275.850 67.020,279.979 71.700 C 282.259 74.285,284.267 76.400,284.442 76.400 C 284.616 76.400,286.973 78.682,289.680 81.471 C 292.386 84.259,296.242 88.174,298.250 90.171 C 306.938 98.809,308.085 100.840,305.900 103.704 C 305.355 104.419,304.259 106.295,303.464 107.872 C 302.670 109.450,301.833 110.856,301.604 110.997 C 301.376 111.139,300.808 112.007,300.343 112.927 C 299.878 113.847,298.692 115.677,297.708 116.994 C 296.723 118.311,295.494 120.201,294.975 121.194 C 294.456 122.187,293.032 124.170,291.811 125.600 C 290.589 127.030,289.097 128.979,288.495 129.932 C 287.893 130.885,286.792 132.492,286.048 133.503 C 285.305 134.515,284.329 136.256,283.880 137.371 C 283.432 138.487,282.690 139.819,282.232 140.331 C 281.775 140.843,280.590 142.484,279.600 143.977 C 274.972 150.958,273.962 152.324,272.146 154.061 C 269.761 156.342,266.090 158.061,265.573 157.138 C 265.183 156.440,263.028 155.482,260.234 154.764 C 259.152 154.486,257.712 153.776,257.034 153.185 C 256.355 152.594,255.170 151.789,254.400 151.396 C 253.630 151.003,252.423 150.243,251.718 149.707 C 251.013 149.171,249.096 148.233,247.457 147.621 C 245.818 147.010,243.965 146.152,243.339 145.714 C 242.712 145.276,241.053 144.536,239.650 144.069 C 238.248 143.601,236.538 142.790,235.850 142.265 C 235.163 141.741,233.430 140.727,232.000 140.011 C 230.570 139.296,229.130 138.479,228.800 138.196 C 228.470 137.914,226.940 137.020,225.400 136.211 C 223.860 135.403,222.150 134.318,221.600 133.800 C 221.050 133.283,219.250 132.244,217.600 131.490 C 214.094 129.890,209.449 126.799,209.287 125.959 C 209.226 125.637,210.171 124.124,211.389 122.596 C 213.913 119.429,220.732 109.445,225.278 102.263 C 226.970 99.588,228.882 96.680,229.527 95.800 C 230.171 94.920,230.923 93.750,231.197 93.200 C 231.471 92.650,232.363 91.390,233.179 90.400 C 233.995 89.410,235.172 87.700,235.795 86.600 C 236.418 85.500,237.506 83.970,238.213 83.200 C 238.919 82.430,239.967 80.979,240.542 79.976 C 241.117 78.972,242.060 77.712,242.637 77.176 C 243.214 76.639,244.127 75.210,244.665 74.000 C 245.203 72.790,246.055 71.350,246.558 70.800 C 247.061 70.250,247.889 69.080,248.398 68.200 C 248.907 67.320,249.985 65.880,250.793 65.000 C 253.140 62.446,254.610 60.367,255.804 57.912 C 258.101 53.194,260.267 52.652,264.024 55.856 M126.871 74.389 C 128.482 74.603,141.680 75.154,156.200 75.614 C 203.653 77.117,201.258 76.912,203.145 79.636 C 204.596 81.731,204.186 89.637,202.016 101.400 C 201.035 106.719,200.231 112.574,199.985 116.200 C 199.501 123.340,199.090 126.132,198.216 128.224 C 197.859 129.079,197.222 132.843,196.801 136.589 C 195.202 150.832,194.766 154.006,193.994 157.022 C 193.558 158.730,193.199 160.774,193.197 161.564 C 193.178 171.205,192.087 172.430,183.127 172.859 C 166.000 173.679,154.505 174.472,150.000 175.144 C 148.570 175.357,143.644 175.657,139.054 175.811 C 127.630 176.195,127.830 175.846,131.335 189.228 C 131.886 191.333,132.466 194.360,132.623 195.954 L 132.908 198.852 130.554 201.050 C 127.651 203.762,126.847 204.198,123.242 205.018 C 121.657 205.378,119.893 206.073,119.290 206.575 C 117.729 207.873,116.984 208.203,113.433 209.171 C 111.431 209.717,109.798 210.446,108.992 211.153 C 108.119 211.920,106.629 212.545,104.259 213.140 C 102.357 213.617,99.936 214.539,98.881 215.188 C 97.815 215.844,95.576 216.674,93.849 217.053 C 91.769 217.510,90.265 218.112,89.314 218.869 C 88.531 219.491,86.430 220.461,84.645 221.024 C 82.860 221.587,80.940 222.486,80.379 223.023 C 79.710 223.662,78.190 224.288,75.979 224.837 C 74.120 225.298,71.938 226.124,71.129 226.672 C 69.681 227.653,64.074 229.600,62.696 229.600 C 62.309 229.600,61.679 229.974,61.296 230.432 C 60.268 231.659,58.769 232.333,55.569 233.007 C 53.826 233.373,51.826 234.151,50.453 234.997 C 48.734 236.056,47.458 236.487,45.069 236.818 C 39.969 237.524,39.032 236.405,38.690 229.200 C 38.555 226.370,38.211 223.907,37.796 222.800 C 35.779 217.417,35.202 214.635,34.779 208.271 C 34.454 203.371,34.156 201.365,33.550 200.001 C 32.153 196.854,31.259 191.967,30.802 184.983 C 30.321 177.631,30.337 177.738,28.969 172.920 C 28.141 170.006,27.422 164.983,26.575 156.200 C 26.402 154.412,25.893 152.533,25.167 151.000 C 22.319 144.989,23.127 140.473,27.389 138.588 C 28.525 138.085,30.127 137.218,30.948 136.661 C 31.769 136.104,33.466 135.442,34.720 135.189 C 40.202 134.084,41.065 133.830,42.200 132.986 C 43.707 131.865,44.153 131.733,49.487 130.836 C 53.014 130.243,54.060 129.906,54.960 129.072 C 56.049 128.063,56.620 127.891,63.166 126.600 C 64.809 126.276,66.504 125.678,66.966 125.258 C 68.352 123.998,69.315 123.659,73.775 122.859 C 76.764 122.323,78.314 121.845,78.925 121.273 C 80.112 120.161,81.445 119.702,86.111 118.798 C 88.297 118.374,90.313 117.838,90.591 117.607 C 91.405 116.932,96.365 115.364,99.400 114.823 C 100.940 114.549,102.650 114.009,103.200 113.624 C 103.750 113.239,104.740 112.644,105.400 112.302 C 107.706 111.108,108.800 109.763,108.803 108.119 C 108.804 107.284,109.146 105.160,109.562 103.400 C 109.978 101.640,110.424 98.940,110.552 97.400 C 112.245 77.080,112.191 77.487,113.328 76.166 C 114.758 74.503,121.283 73.647,126.871 74.389 M359.128 162.223 C 361.147 163.164,362.935 164.428,364.884 166.294 C 366.439 167.782,368.036 169.305,368.433 169.678 C 369.200 170.397,369.828 172.830,369.480 173.735 C 368.973 175.058,359.054 175.958,335.400 176.828 C 325.269 177.201,322.524 177.425,320.400 178.056 C 314.668 179.757,290.422 180.625,288.875 179.184 C 287.476 177.881,287.565 177.663,291.698 172.288 C 297.386 164.890,300.068 164.099,322.412 163.222 C 328.505 162.983,332.953 162.590,336.147 162.010 C 346.521 160.124,354.787 160.201,359.128 162.223 M310.686 204.598 C 313.059 204.927,318.510 205.262,322.800 205.342 C 329.353 205.465,330.984 205.619,333.000 206.307 C 335.973 207.321,337.685 207.543,346.000 207.995 C 349.630 208.193,353.860 208.615,355.400 208.934 C 356.940 209.253,359.280 209.641,360.600 209.796 C 364.289 210.228,365.472 212.799,362.900 214.791 C 362.295 215.259,360.443 216.687,358.784 217.963 C 357.125 219.240,355.472 220.736,355.110 221.288 C 354.692 221.927,353.809 222.454,352.682 222.738 C 351.708 222.983,350.685 223.457,350.407 223.792 C 350.129 224.126,349.724 224.400,349.505 224.400 C 348.885 224.400,343.399 227.916,342.556 228.854 C 342.140 229.317,340.810 230.328,339.600 231.101 C 338.390 231.874,336.808 233.023,336.085 233.654 C 332.504 236.779,327.837 237.715,323.455 236.188 C 322.545 235.871,320.990 235.606,320.000 235.600 C 318.165 235.588,314.298 234.660,306.800 232.431 C 304.490 231.744,301.160 230.984,299.400 230.742 C 297.640 230.500,294.400 229.710,292.200 228.986 C 287.610 227.476,286.867 227.345,279.800 226.797 C 276.219 226.519,273.316 226.023,270.476 225.205 C 268.208 224.551,264.788 223.810,262.876 223.559 C 257.670 222.874,255.544 221.940,258.072 221.449 C 262.768 220.536,263.802 220.200,265.495 219.037 C 266.543 218.319,268.570 217.263,270.000 216.691 C 271.430 216.119,275.030 214.400,278.000 212.870 C 282.961 210.315,287.120 208.668,293.400 206.769 C 294.720 206.370,297.060 205.595,298.600 205.047 C 301.936 203.860,304.640 203.760,310.686 204.598 M254.354 225.808 C 255.099 226.196,257.466 226.741,259.614 227.021 C 263.625 227.542,264.776 227.933,266.249 229.271 C 266.774 229.749,268.600 230.344,271.049 230.833 C 273.574 231.339,276.155 232.189,278.200 233.188 C 279.960 234.049,282.300 234.970,283.400 235.235 C 288.342 236.428,289.162 237.337,287.861 240.180 C 286.659 242.804,285.436 243.523,280.104 244.740 C 278.072 245.204,275.372 246.106,274.104 246.745 C 271.741 247.935,269.220 248.559,265.000 248.997 C 262.169 249.291,251.359 251.960,247.149 253.404 C 237.392 256.752,234.406 256.695,227.699 253.031 C 225.995 252.101,223.340 250.650,221.800 249.808 C 220.260 248.966,218.124 247.556,217.052 246.675 C 215.312 245.243,211.319 243.235,210.162 243.209 C 209.921 243.204,208.719 242.226,207.490 241.036 C 206.261 239.845,204.883 238.753,204.428 238.609 C 202.794 238.090,203.366 237.663,208.200 235.794 C 209.520 235.283,211.276 234.510,212.102 234.075 C 212.929 233.640,215.359 232.976,217.502 232.600 C 219.646 232.223,223.470 231.282,226.000 230.509 C 229.821 229.341,239.789 226.638,245.600 225.194 C 247.787 224.651,252.807 225.003,254.354 225.808 M338.187 283.189 C 339.500 283.455,341.210 284.025,341.987 284.456 C 346.335 286.868,347.872 287.957,348.692 289.209 C 349.193 289.974,350.047 291.059,350.589 291.621 C 353.958 295.110,354.263 303.079,351.096 304.888 C 350.462 305.251,348.148 305.400,343.172 305.400 C 334.975 305.400,335.060 305.432,331.093 300.773 C 326.843 295.780,323.158 295.881,317.695 301.139 C 312.912 305.741,313.106 305.206,313.120 313.791 C 313.134 322.190,313.439 323.726,315.522 325.872 C 319.304 329.769,322.515 331.037,327.728 330.694 C 331.891 330.419,332.080 330.331,333.128 328.174 C 334.573 325.200,333.709 324.376,328.691 323.945 C 324.815 323.612,323.555 322.647,322.521 319.221 C 322.152 317.999,321.718 316.843,321.556 316.650 C 321.393 316.458,321.517 315.693,321.830 314.950 C 323.700 310.520,323.301 310.929,326.843 309.810 C 329.820 308.870,330.840 308.763,337.960 308.649 C 353.591 308.397,353.247 307.981,353.488 327.400 C 353.704 344.774,353.876 344.406,345.078 345.429 C 342.284 345.755,339.537 346.196,338.973 346.410 C 338.409 346.625,336.925 346.804,335.674 346.810 C 334.423 346.815,332.725 346.976,331.899 347.168 C 329.485 347.728,318.807 346.946,316.010 346.003 C 314.698 345.561,312.979 345.200,312.190 345.200 C 309.792 345.200,307.233 344.368,306.409 343.320 C 305.985 342.782,304.761 341.904,303.689 341.370 C 299.562 339.313,294.419 333.018,294.401 330.000 C 294.399 329.670,294.011 328.770,293.540 328.000 C 290.942 323.757,290.118 310.578,292.102 305.000 C 294.731 297.607,295.583 295.795,296.989 294.600 C 297.765 293.940,298.400 293.194,298.400 292.941 C 298.400 292.689,299.075 291.917,299.900 291.226 C 300.725 290.535,302.030 289.351,302.800 288.594 C 303.570 287.838,304.989 286.945,305.952 286.609 C 306.916 286.273,308.886 285.417,310.330 284.706 C 314.889 282.462,330.423 281.616,338.187 283.189 M195.757 284.359 C 197.800 286.280,198.474 291.915,198.727 309.200 C 198.968 325.637,198.938 327.057,198.279 330.600 C 197.892 332.681,197.748 335.199,197.868 337.800 C 198.198 344.955,197.414 345.586,188.200 345.593 C 177.450 345.600,176.577 344.070,177.640 327.089 C 178.026 320.932,178.031 317.962,177.664 313.689 C 176.585 301.134,177.489 287.824,179.578 285.502 C 181.866 282.960,193.404 282.145,195.757 284.359 M55.300 284.331 C 56.488 285.114,58.817 287.706,59.496 289.000 C 59.771 289.525,59.895 295.396,59.857 306.109 C 59.815 318.162,59.940 323.224,60.336 325.509 C 61.250 330.776,60.124 330.236,70.864 330.559 C 85.631 331.003,85.563 330.962,85.678 339.413 C 85.763 345.648,85.922 345.605,62.897 345.651 C 42.947 345.692,41.680 345.588,39.974 343.773 L 39.000 342.736 38.884 316.527 C 38.757 288.056,38.810 287.258,40.942 285.255 C 42.736 283.569,53.131 282.900,55.300 284.331 " stroke="none" fill="#fafbfb" fill-rule="evenodd"></path><path id="path3" d="M257.675 54.812 C 257.258 55.259,256.417 56.654,255.804 57.912 C 254.610 60.367,253.140 62.446,250.793 65.000 C 249.985 65.880,248.907 67.320,248.398 68.200 C 247.889 69.080,247.061 70.250,246.558 70.800 C 246.055 71.350,245.203 72.790,244.665 74.000 C 244.127 75.210,243.214 76.639,242.637 77.176 C 242.060 77.712,241.117 78.972,240.542 79.976 C 239.967 80.979,238.919 82.430,238.213 83.200 C 237.506 83.970,236.418 85.500,235.795 86.600 C 235.172 87.700,233.995 89.410,233.179 90.400 C 232.363 91.390,231.471 92.650,231.197 93.200 C 230.923 93.750,230.171 94.920,229.527 95.800 C 228.882 96.680,226.970 99.588,225.278 102.263 C 220.732 109.445,213.913 119.429,211.389 122.596 C 210.171 124.124,209.226 125.637,209.287 125.959 C 209.449 126.799,214.094 129.890,217.600 131.490 C 219.250 132.244,221.050 133.283,221.600 133.800 C 222.150 134.318,223.860 135.403,225.400 136.211 C 226.940 137.020,228.470 137.914,228.800 138.196 C 229.130 138.479,230.570 139.296,232.000 140.011 C 233.430 140.727,235.163 141.741,235.850 142.265 C 236.538 142.790,238.248 143.601,239.650 144.069 C 241.053 144.536,242.712 145.276,243.339 145.714 C 243.965 146.152,245.818 147.010,247.457 147.621 C 249.096 148.233,251.013 149.171,251.718 149.707 C 252.423 150.243,253.630 151.003,254.400 151.396 C 255.170 151.789,256.355 152.594,257.034 153.185 C 257.712 153.776,259.152 154.486,260.234 154.764 C 263.028 155.482,265.183 156.440,265.573 157.138 C 266.090 158.061,269.761 156.342,272.146 154.061 C 273.962 152.324,274.972 150.958,279.600 143.977 C 280.590 142.484,281.775 140.843,282.232 140.331 C 282.690 139.819,283.432 138.487,283.880 137.371 C 284.329 136.256,285.305 134.515,286.048 133.503 C 286.792 132.492,287.893 130.885,288.495 129.932 C 289.097 128.979,290.589 127.030,291.811 125.600 C 293.032 124.170,294.456 122.187,294.975 121.194 C 295.494 120.201,296.723 118.311,297.708 116.994 C 298.692 115.677,299.878 113.847,300.343 112.927 C 300.808 112.007,301.376 111.139,301.604 110.997 C 301.833 110.856,302.670 109.450,303.464 107.872 C 304.259 106.295,305.355 104.419,305.900 103.704 C 308.085 100.840,306.938 98.809,298.250 90.171 C 296.242 88.174,292.386 84.259,289.680 81.471 C 286.973 78.682,284.616 76.400,284.442 76.400 C 284.267 76.400,282.259 74.285,279.979 71.700 C 275.850 67.020,268.166 59.389,264.024 55.856 C 261.486 53.691,259.086 53.297,257.675 54.812 M117.610 74.604 C 114.823 75.035,114.061 75.313,113.328 76.166 C 112.191 77.487,112.245 77.080,110.552 97.400 C 110.424 98.940,109.978 101.640,109.562 103.400 C 109.146 105.160,108.804 107.284,108.803 108.119 C 108.800 109.763,107.706 111.108,105.400 112.302 C 104.740 112.644,103.750 113.239,103.200 113.624 C 102.650 114.009,100.940 114.549,99.400 114.823 C 96.365 115.364,91.405 116.932,90.591 117.607 C 90.313 117.838,88.297 118.374,86.111 118.798 C 81.445 119.702,80.112 120.161,78.925 121.273 C 78.314 121.845,76.764 122.323,73.775 122.859 C 69.315 123.659,68.352 123.998,66.966 125.258 C 66.504 125.678,64.809 126.276,63.166 126.600 C 56.620 127.891,56.049 128.063,54.960 129.072 C 54.060 129.906,53.014 130.243,49.487 130.836 C 44.153 131.733,43.707 131.865,42.200 132.986 C 41.065 133.830,40.202 134.084,34.720 135.189 C 33.466 135.442,31.769 136.104,30.948 136.661 C 30.127 137.218,28.525 138.085,27.389 138.588 C 23.127 140.473,22.319 144.989,25.167 151.000 C 25.893 152.533,26.402 154.412,26.575 156.200 C 27.422 164.983,28.141 170.006,28.969 172.920 C 30.337 177.738,30.321 177.631,30.802 184.983 C 31.259 191.967,32.153 196.854,33.550 200.001 C 34.156 201.365,34.454 203.371,34.779 208.271 C 35.202 214.635,35.779 217.417,37.796 222.800 C 38.211 223.907,38.555 226.370,38.690 229.200 C 39.032 236.405,39.969 237.524,45.069 236.818 C 47.458 236.487,48.734 236.056,50.453 234.997 C 51.826 234.151,53.826 233.373,55.569 233.007 C 58.769 232.333,60.268 231.659,61.296 230.432 C 61.679 229.974,62.309 229.600,62.696 229.600 C 64.074 229.600,69.681 227.653,71.129 226.672 C 71.938 226.124,74.120 225.298,75.979 224.837 C 78.190 224.288,79.710 223.662,80.379 223.023 C 80.940 222.486,82.860 221.587,84.645 221.024 C 86.430 220.461,88.531 219.491,89.314 218.869 C 90.265 218.112,91.769 217.510,93.849 217.053 C 95.576 216.674,97.815 215.844,98.881 215.188 C 99.936 214.539,102.357 213.617,104.259 213.140 C 106.629 212.545,108.119 211.920,108.992 211.153 C 109.798 210.446,111.431 209.717,113.433 209.171 C 116.984 208.203,117.729 207.873,119.290 206.575 C 119.893 206.073,121.657 205.378,123.242 205.018 C 126.847 204.198,127.651 203.762,130.554 201.050 L 132.908 198.852 132.623 195.954 C 132.466 194.360,131.886 191.333,131.335 189.228 C 127.830 175.846,127.630 176.195,139.054 175.811 C 143.644 175.657,148.570 175.357,150.000 175.144 C 154.505 174.472,166.000 173.679,183.127 172.859 C 192.087 172.430,193.178 171.205,193.197 161.564 C 193.199 160.774,193.558 158.730,193.994 157.022 C 194.766 154.006,195.202 150.832,196.801 136.589 C 197.222 132.843,197.859 129.079,198.216 128.224 C 199.090 126.132,199.501 123.340,199.985 116.200 C 200.231 112.574,201.035 106.719,202.016 101.400 C 204.186 89.637,204.596 81.731,203.145 79.636 C 201.258 76.912,203.653 77.117,156.200 75.614 C 141.680 75.154,128.482 74.603,126.871 74.389 C 123.251 73.908,121.903 73.939,117.610 74.604 M148.565 78.544 C 153.480 79.577,180.192 81.200,192.264 81.200 C 195.390 81.200,198.436 81.386,199.033 81.613 L 200.119 82.025 199.870 85.713 C 199.734 87.741,199.336 90.480,198.986 91.800 C 198.488 93.676,198.408 95.204,198.615 98.800 C 198.922 104.115,198.387 108.831,197.222 111.073 C 195.197 114.971,194.386 120.443,194.290 130.869 C 194.201 140.468,194.186 140.635,193.269 141.610 C 191.180 143.832,190.449 148.715,190.415 160.674 C 190.398 166.825,190.143 167.761,188.325 168.354 C 184.900 169.471,161.922 170.865,145.000 170.983 C 140.222 171.016,133.270 171.441,131.200 171.827 C 130.870 171.888,130.483 171.953,130.339 171.969 C 130.092 171.998,129.870 172.512,128.551 176.111 C 127.837 178.058,128.690 186.426,130.192 192.207 C 131.322 196.556,131.430 197.968,130.700 198.855 C 129.450 200.373,125.583 202.572,121.919 203.847 C 119.717 204.614,116.972 205.773,115.820 206.424 C 114.667 207.074,112.752 207.895,111.564 208.248 C 110.375 208.601,108.137 209.560,106.589 210.380 C 105.042 211.200,102.431 212.193,100.788 212.587 C 99.145 212.981,97.440 213.618,97.000 214.002 C 95.807 215.043,94.849 215.462,91.991 216.196 C 90.566 216.561,88.320 217.456,87.000 218.184 C 85.680 218.912,83.338 219.959,81.796 220.510 C 80.254 221.062,78.345 221.896,77.552 222.363 C 76.760 222.830,74.602 223.723,72.756 224.347 C 70.910 224.971,68.680 225.848,67.800 226.296 C 66.920 226.744,64.763 227.607,63.006 228.212 C 61.249 228.818,59.179 229.721,58.406 230.220 C 57.633 230.719,55.390 231.609,53.423 232.200 C 51.456 232.790,49.026 233.691,48.023 234.203 C 41.907 237.325,40.819 236.347,39.664 226.686 C 39.033 221.413,38.426 218.172,37.603 215.672 C 36.842 213.365,36.285 210.539,36.003 207.565 C 35.281 199.948,34.384 194.430,33.554 192.493 C 32.993 191.183,32.489 187.999,31.803 181.427 C 31.274 176.352,30.394 170.310,29.849 168.000 C 29.303 165.690,28.564 161.640,28.207 159.000 C 27.850 156.360,27.109 151.438,26.561 148.062 C 25.777 143.226,25.667 141.801,26.047 141.343 C 27.019 140.172,34.801 136.836,39.316 135.656 C 41.860 134.990,44.660 134.079,45.538 133.631 C 46.416 133.183,49.051 132.364,51.392 131.811 C 53.733 131.258,56.409 130.359,57.340 129.814 C 58.270 129.269,60.919 128.377,63.228 127.831 C 65.536 127.286,68.590 126.296,70.013 125.631 C 71.436 124.966,74.025 124.150,75.767 123.817 C 77.508 123.485,80.118 122.655,81.567 121.973 C 83.015 121.291,86.405 120.223,89.100 119.599 C 91.795 118.976,94.610 118.088,95.357 117.627 C 96.104 117.165,98.309 116.443,100.257 116.021 C 105.332 114.924,106.907 114.272,109.939 112.017 L 112.631 110.016 113.271 106.624 C 113.629 104.725,114.208 102.935,114.585 102.558 C 114.975 102.168,115.096 101.782,114.871 101.642 C 113.955 101.071,113.596 98.099,113.991 94.350 C 114.208 92.288,114.389 89.517,114.393 88.194 C 114.398 86.514,114.644 85.367,115.210 84.394 C 115.655 83.627,116.470 82.073,117.021 80.940 C 118.310 78.288,118.871 77.856,121.354 77.606 C 125.232 77.216,145.580 77.917,148.565 78.544 M346.935 160.827 C 343.600 161.005,338.745 161.537,336.147 162.010 C 332.953 162.590,328.505 162.983,322.412 163.222 C 300.068 164.099,297.386 164.890,291.698 172.288 C 287.565 177.663,287.476 177.881,288.875 179.184 C 290.422 180.625,314.668 179.757,320.400 178.056 C 322.524 177.425,325.269 177.201,335.400 176.828 C 359.054 175.958,368.973 175.058,369.480 173.735 C 369.828 172.830,369.200 170.397,368.433 169.678 C 368.036 169.305,366.439 167.782,364.884 166.294 C 359.615 161.251,356.540 160.314,346.935 160.827 M350.696 169.763 C 351.407 170.474,349.757 171.155,348.200 170.792 C 347.320 170.587,345.715 170.415,344.633 170.410 C 343.552 170.404,342.769 170.298,342.894 170.172 C 343.642 169.424,350.023 169.089,350.696 169.763 M298.600 205.047 C 297.060 205.595,294.720 206.370,293.400 206.769 C 287.120 208.668,282.961 210.315,278.000 212.870 C 275.030 214.400,271.430 216.119,270.000 216.691 C 268.570 217.263,266.543 218.319,265.495 219.037 C 263.802 220.200,262.768 220.536,258.072 221.449 C 255.544 221.940,257.670 222.874,262.876 223.559 C 264.788 223.810,268.208 224.551,270.476 225.205 C 273.316 226.023,276.219 226.519,279.800 226.797 C 286.867 227.345,287.610 227.476,292.200 228.986 C 294.400 229.710,297.640 230.500,299.400 230.742 C 301.160 230.984,304.490 231.744,306.800 232.431 C 314.298 234.660,318.165 235.588,320.000 235.600 C 320.990 235.606,322.545 235.871,323.455 236.188 C 327.837 237.715,332.504 236.779,336.085 233.654 C 336.808 233.023,338.390 231.874,339.600 231.101 C 340.810 230.328,342.140 229.317,342.556 228.854 C 343.399 227.916,348.885 224.400,349.505 224.400 C 349.724 224.400,350.129 224.126,350.407 223.792 C 350.685 223.457,351.708 222.983,352.682 222.738 C 353.809 222.454,354.692 221.927,355.110 221.288 C 355.472 220.736,357.125 219.240,358.784 217.963 C 360.443 216.687,362.295 215.259,362.900 214.791 C 365.472 212.799,364.289 210.228,360.600 209.796 C 359.280 209.641,356.940 209.253,355.400 208.934 C 353.860 208.615,349.630 208.193,346.000 207.995 C 337.685 207.543,335.973 207.321,333.000 206.307 C 330.984 205.619,329.353 205.465,322.800 205.342 C 318.510 205.262,313.059 204.927,310.686 204.598 C 304.640 203.760,301.936 203.860,298.600 205.047 M245.600 225.194 C 239.789 226.638,229.821 229.341,226.000 230.509 C 223.470 231.282,219.646 232.223,217.502 232.600 C 215.359 232.976,212.929 233.640,212.102 234.075 C 211.276 234.510,209.520 235.283,208.200 235.794 C 203.366 237.663,202.794 238.090,204.428 238.609 C 204.883 238.753,206.261 239.845,207.490 241.036 C 208.719 242.226,209.921 243.204,210.162 243.209 C 211.319 243.235,215.312 245.243,217.052 246.675 C 218.124 247.556,220.260 248.966,221.800 249.808 C 223.340 250.650,225.995 252.101,227.699 253.031 C 234.406 256.695,237.392 256.752,247.149 253.404 C 251.359 251.960,262.169 249.291,265.000 248.997 C 269.220 248.559,271.741 247.935,274.104 246.745 C 275.372 246.106,278.072 245.204,280.104 244.740 C 285.436 243.523,286.659 242.804,287.861 240.180 C 289.162 237.337,288.342 236.428,283.400 235.235 C 282.300 234.970,279.960 234.049,278.200 233.188 C 276.155 232.189,273.574 231.339,271.049 230.833 C 268.600 230.344,266.774 229.749,266.249 229.271 C 264.776 227.933,263.625 227.542,259.614 227.021 C 257.466 226.741,255.099 226.196,254.354 225.808 C 252.807 225.003,247.787 224.651,245.600 225.194 M256.200 228.953 C 257.740 229.234,259.981 229.966,261.181 230.580 C 262.381 231.193,264.945 232.020,266.880 232.416 C 271.038 233.268,272.894 233.849,274.567 234.825 C 275.245 235.219,277.465 236.037,279.500 236.643 C 283.738 237.903,283.766 237.955,281.492 240.474 C 279.957 242.173,279.496 242.422,276.526 243.148 C 274.725 243.588,272.025 244.485,270.526 245.142 C 266.388 246.953,258.554 247.764,254.306 246.821 C 253.368 246.613,250.260 245.969,247.400 245.390 C 244.540 244.812,239.860 243.564,237.000 242.618 C 234.140 241.672,230.540 240.582,229.000 240.195 C 220.263 237.998,225.902 233.844,244.400 228.850 C 246.428 228.303,252.947 228.359,256.200 228.953 M315.578 282.922 C 314.135 283.192,311.774 283.995,310.330 284.706 C 308.886 285.417,306.916 286.273,305.952 286.609 C 304.989 286.945,303.570 287.838,302.800 288.594 C 302.030 289.351,300.725 290.535,299.900 291.226 C 299.075 291.917,298.400 292.689,298.400 292.941 C 298.400 293.194,297.765 293.940,296.989 294.600 C 295.583 295.795,294.731 297.607,292.102 305.000 C 290.118 310.578,290.942 323.757,293.540 328.000 C 294.011 328.770,294.399 329.670,294.401 330.000 C 294.419 333.018,299.562 339.313,303.689 341.370 C 304.761 341.904,305.985 342.782,306.409 343.320 C 307.233 344.368,309.792 345.200,312.190 345.200 C 312.979 345.200,314.698 345.561,316.010 346.003 C 318.807 346.946,329.485 347.728,331.899 347.168 C 332.725 346.976,334.423 346.815,335.674 346.810 C 336.925 346.804,338.409 346.625,338.973 346.410 C 339.537 346.196,342.284 345.755,345.078 345.429 C 353.876 344.406,353.704 344.774,353.488 327.400 C 353.247 307.981,353.591 308.397,337.960 308.649 C 330.840 308.763,329.820 308.870,326.843 309.810 C 323.301 310.929,323.700 310.520,321.830 314.950 C 321.517 315.693,321.393 316.458,321.556 316.650 C 321.718 316.843,322.152 317.999,322.521 319.221 C 323.555 322.647,324.815 323.612,328.691 323.945 C 333.709 324.376,334.573 325.200,333.128 328.174 C 332.080 330.331,331.891 330.419,327.728 330.694 C 322.515 331.037,319.304 329.769,315.522 325.872 C 313.439 323.726,313.134 322.190,313.120 313.791 C 313.106 305.206,312.912 305.741,317.695 301.139 C 323.158 295.881,326.843 295.780,331.093 300.773 C 335.060 305.432,334.975 305.400,343.172 305.400 C 348.148 305.400,350.462 305.251,351.096 304.888 C 354.263 303.079,353.958 295.110,350.589 291.621 C 350.047 291.059,349.193 289.974,348.692 289.209 C 347.872 287.957,346.335 286.868,341.987 284.456 C 338.867 282.726,321.886 281.739,315.578 282.922 M182.200 283.786 C 177.685 285.425,176.121 295.734,177.664 313.689 C 178.031 317.962,178.026 320.932,177.640 327.089 C 176.577 344.070,177.450 345.600,188.200 345.593 C 197.414 345.586,198.198 344.955,197.868 337.800 C 197.748 335.199,197.892 332.681,198.279 330.600 C 198.938 327.057,198.968 325.637,198.727 309.200 C 198.474 291.915,197.800 286.280,195.757 284.359 C 194.466 283.144,185.064 282.746,182.200 283.786 M43.854 284.020 C 38.718 284.882,38.742 284.724,38.884 316.527 L 39.000 342.736 39.974 343.773 C 41.680 345.588,42.947 345.692,62.897 345.651 C 85.922 345.605,85.763 345.648,85.678 339.413 C 85.563 330.962,85.631 331.003,70.864 330.559 C 60.124 330.236,61.250 330.776,60.336 325.509 C 59.940 323.224,59.815 318.162,59.857 306.109 C 59.895 295.396,59.771 289.525,59.496 289.000 C 56.892 284.034,52.365 282.593,43.854 284.020 M335.800 284.791 C 343.589 287.075,346.119 288.773,349.753 294.156 C 351.916 297.360,352.183 298.186,351.827 300.559 C 351.376 303.568,350.857 303.781,343.613 303.927 L 337.307 304.054 333.820 300.466 C 323.385 289.730,308.479 300.258,311.157 316.473 C 311.401 317.947,311.614 319.839,311.631 320.677 C 311.777 327.833,318.202 332.701,327.699 332.851 C 333.810 332.948,335.005 332.163,335.424 327.772 C 335.852 323.280,334.076 321.725,328.400 321.626 C 327.190 321.605,326.020 321.456,325.800 321.294 C 323.138 319.338,322.651 314.592,324.899 312.504 C 327.673 309.927,349.043 310.071,350.962 312.679 C 352.630 314.946,352.630 339.225,350.962 341.471 C 347.735 345.816,314.231 346.408,308.638 342.219 C 307.957 341.709,306.680 340.917,305.800 340.460 C 304.142 339.598,300.462 336.224,297.961 333.271 C 294.451 329.126,291.670 314.237,293.354 308.600 C 293.682 307.500,294.392 305.051,294.931 303.158 C 295.469 301.264,296.134 299.296,296.408 298.785 C 297.165 297.370,301.294 292.000,301.625 292.000 C 301.785 292.000,302.776 291.188,303.827 290.195 C 305.245 288.856,306.418 288.183,308.369 287.590 C 309.816 287.150,312.037 286.332,313.305 285.770 C 317.170 284.060,331.220 283.448,335.800 284.791 M193.600 285.989 C 194.223 286.152,194.975 286.921,195.594 288.026 L 196.587 289.800 196.717 308.600 C 196.969 345.395,197.277 344.065,188.518 344.077 C 181.752 344.087,180.682 343.714,179.963 341.097 C 179.268 338.565,179.450 290.733,180.162 289.031 C 181.487 285.859,187.732 284.445,193.600 285.989 M55.210 287.000 C 57.657 289.328,57.600 288.854,57.600 306.719 C 57.600 315.716,57.716 324.714,57.858 326.714 L 58.116 330.352 60.032 331.176 C 61.749 331.914,62.794 332.003,70.074 332.029 C 83.678 332.078,83.567 332.031,83.891 337.911 C 84.260 344.611,84.309 344.599,57.200 344.332 C 42.525 344.187,41.656 344.050,40.777 341.739 C 40.011 339.724,40.170 290.405,40.948 288.901 C 42.708 285.498,52.288 284.221,55.210 287.000 " stroke="none" fill="#add3da" fill-rule="evenodd"></path><path id="path4" d="M111.562 113.813 C 109.427 115.101,107.845 115.558,100.461 117.020 C 98.844 117.340,97.010 117.966,96.385 118.411 C 95.753 118.861,93.153 119.680,90.524 120.257 C 87.926 120.827,84.903 121.747,83.806 122.301 C 82.709 122.855,79.823 123.801,77.393 124.402 C 74.964 125.003,72.216 125.882,71.287 126.356 C 70.358 126.830,67.685 127.669,65.347 128.222 C 63.008 128.774,59.994 129.755,58.647 130.401 C 57.301 131.048,54.640 131.945,52.732 132.396 C 50.825 132.846,48.305 133.654,47.132 134.190 C 45.960 134.727,43.200 135.640,41.000 136.219 C 37.222 137.213,32.323 139.102,29.200 140.767 C 27.474 141.688,27.172 144.750,28.153 151.393 C 28.478 153.597,28.849 156.300,28.977 157.400 C 29.106 158.500,29.736 161.499,30.378 164.065 C 31.020 166.631,31.748 170.951,31.997 173.665 C 33.030 184.942,33.615 189.082,34.560 191.800 C 35.248 193.778,35.782 196.915,36.378 202.487 C 36.979 208.103,37.549 211.443,38.359 214.087 C 38.984 216.129,39.620 218.880,39.772 220.200 C 40.300 224.772,41.245 231.007,41.637 232.500 C 42.112 234.308,44.438 234.609,47.167 233.217 C 48.012 232.786,49.940 232.133,51.451 231.766 C 52.963 231.399,55.550 230.427,57.200 229.606 C 58.850 228.785,60.920 227.883,61.800 227.601 C 62.680 227.320,64.390 226.596,65.600 225.992 C 66.810 225.388,69.330 224.413,71.200 223.824 C 73.070 223.236,75.230 222.383,76.000 221.929 C 76.770 221.474,79.017 220.484,80.993 219.729 C 82.970 218.973,84.860 218.117,85.193 217.826 C 86.296 216.864,88.210 216.068,91.357 215.261 C 93.067 214.823,94.765 214.202,95.133 213.881 C 96.208 212.939,98.044 212.143,100.400 211.598 C 101.610 211.318,103.950 210.419,105.600 209.601 C 107.250 208.782,109.590 207.795,110.800 207.408 C 112.010 207.020,113.937 206.176,115.083 205.532 C 116.229 204.888,118.711 203.839,120.599 203.200 C 128.564 200.508,130.233 198.514,128.970 193.200 C 128.118 189.616,127.220 179.976,127.199 174.200 C 127.186 170.425,127.026 169.055,126.449 167.784 C 126.014 166.827,125.443 163.813,125.049 160.384 C 124.064 151.839,123.253 146.681,122.189 142.200 C 121.667 140.000,121.039 136.310,120.795 134.000 C 120.287 129.207,118.906 121.761,118.320 120.656 C 118.102 120.246,117.569 118.626,117.135 117.056 C 115.809 112.262,114.956 111.766,111.562 113.813 M109.542 117.552 C 111.135 118.198,111.230 118.313,110.648 118.895 C 110.116 119.427,109.978 121.056,109.804 128.851 C 109.689 133.978,109.409 140.968,109.181 144.386 C 108.582 153.365,108.030 167.212,108.248 167.780 C 108.377 168.118,108.063 168.212,107.217 168.088 C 106.103 167.924,106.000 168.006,105.997 169.055 C 105.995 169.685,105.880 171.138,105.743 172.284 L 105.492 174.368 113.846 174.244 C 126.436 174.057,126.045 173.750,127.000 184.600 C 127.349 188.560,127.799 192.610,128.000 193.600 C 128.854 197.811,128.211 199.133,124.791 200.197 C 124.246 200.366,123.307 200.852,122.705 201.276 C 122.103 201.700,120.105 202.556,118.266 203.178 C 116.427 203.799,114.219 204.771,113.361 205.337 C 112.502 205.902,110.810 206.625,109.600 206.944 C 106.557 207.745,105.228 208.289,103.600 209.400 C 102.830 209.926,100.933 210.641,99.385 210.990 C 96.588 211.621,94.000 212.854,94.000 213.554 C 94.000 213.755,92.634 214.224,90.965 214.595 C 87.334 215.403,85.375 216.181,83.944 217.386 C 83.359 217.878,81.377 218.750,79.540 219.323 C 77.703 219.896,75.594 220.813,74.852 221.360 C 74.046 221.956,72.039 222.698,69.852 223.209 C 67.112 223.849,65.759 224.404,64.434 225.431 C 63.463 226.184,62.371 226.800,62.007 226.800 C 60.625 226.800,57.293 228.029,55.556 229.180 C 54.562 229.838,52.549 230.655,51.082 230.995 C 49.616 231.336,47.917 231.815,47.308 232.060 C 46.027 232.576,43.807 232.539,42.772 231.985 C 41.847 231.490,41.321 228.835,40.795 222.000 C 40.358 216.327,39.576 212.434,38.564 210.889 C 37.940 209.937,37.609 207.670,36.595 197.400 C 36.189 193.290,35.629 190.172,34.818 187.504 C 33.849 184.318,33.518 182.132,33.003 175.515 C 32.331 166.875,31.673 162.875,30.574 160.750 C 29.852 159.354,29.059 153.537,28.590 146.192 C 28.270 141.166,28.163 141.339,32.146 140.416 C 33.216 140.168,35.140 139.436,36.421 138.789 C 37.703 138.142,40.697 137.153,43.076 136.591 C 45.497 136.019,48.016 135.154,48.800 134.626 C 49.652 134.051,51.844 133.337,54.400 132.801 C 58.830 131.872,59.703 131.551,61.006 130.368 C 61.497 129.923,63.206 129.394,65.372 129.016 C 70.299 128.157,71.726 127.731,72.978 126.746 C 73.682 126.192,75.628 125.582,78.531 125.004 C 81.272 124.459,83.946 123.637,85.445 122.879 C 86.981 122.103,89.287 121.403,91.645 120.996 C 94.059 120.580,96.043 119.971,97.200 119.291 C 100.740 117.212,106.652 116.379,109.542 117.552 M114.506 166.545 C 114.349 166.795,114.113 167.810,113.981 168.800 C 113.755 170.494,113.716 170.541,113.324 169.600 C 112.394 167.370,112.323 166.800,112.973 166.800 C 113.345 166.800,113.600 166.455,113.600 165.951 C 113.600 165.245,113.700 165.185,114.196 165.596 C 114.523 165.868,114.663 166.295,114.506 166.545 M246.700 231.212 C 244.995 231.829,241.935 232.718,239.900 233.188 C 235.911 234.109,234.273 235.106,233.854 236.868 C 233.571 238.063,235.095 238.719,241.600 240.204 C 243.250 240.580,245.590 241.298,246.800 241.798 C 248.010 242.299,249.630 242.834,250.400 242.987 C 251.170 243.141,253.253 243.791,255.029 244.433 C 261.475 246.763,270.152 244.721,274.422 239.870 L 276.033 238.040 274.317 237.588 C 273.372 237.339,271.499 236.425,270.154 235.556 C 268.088 234.222,267.125 233.889,263.953 233.413 C 261.870 233.100,258.535 232.215,256.464 231.425 C 252.058 229.743,250.834 229.717,246.700 231.212 M318.249 285.199 C 317.177 285.391,315.377 285.915,314.249 286.364 C 313.122 286.813,310.760 287.633,309.000 288.187 C 300.213 290.953,293.952 301.778,293.841 314.400 C 293.798 319.241,295.898 329.130,297.490 331.584 C 298.408 332.998,305.456 340.000,305.962 340.000 C 306.196 340.000,307.272 340.544,308.351 341.208 C 314.135 344.767,338.727 345.588,348.143 342.537 C 351.559 341.430,351.729 340.626,351.513 326.638 C 351.280 311.591,351.561 312.156,344.018 311.595 C 334.639 310.898,325.516 312.023,324.517 314.000 C 322.751 317.495,324.594 320.162,329.051 320.566 C 334.094 321.023,335.998 322.677,335.996 326.600 C 335.994 332.741,333.481 334.479,325.800 333.648 C 316.989 332.695,311.837 328.087,310.986 320.400 C 310.852 319.190,310.567 317.276,310.352 316.148 C 308.876 308.364,314.039 298.126,320.393 296.239 C 325.910 294.601,329.648 295.557,333.814 299.672 C 337.995 303.801,337.506 303.587,342.754 303.594 C 349.891 303.603,351.200 302.927,351.200 299.225 C 351.200 296.481,346.307 290.004,342.924 288.269 C 337.430 285.453,325.284 283.941,318.249 285.199 M185.600 286.968 C 179.931 288.588,180.000 288.180,180.181 318.800 C 180.326 343.371,180.121 342.311,184.904 343.193 C 190.232 344.176,194.563 343.213,195.143 340.918 C 196.221 336.644,196.765 307.346,195.980 295.814 C 195.447 287.966,195.245 287.594,191.184 286.941 C 187.504 286.349,187.772 286.348,185.600 286.968 M45.400 287.171 C 40.739 288.296,40.994 286.632,41.036 315.590 C 41.075 342.669,41.007 341.839,43.312 343.091 C 45.865 344.478,79.986 344.088,82.185 342.647 C 83.398 341.852,83.580 340.617,83.014 337.014 C 82.375 332.939,82.696 333.042,69.212 332.603 C 55.825 332.168,57.023 334.286,56.909 310.858 C 56.810 290.492,56.812 290.525,55.547 288.814 C 54.160 286.937,49.497 286.183,45.400 287.171 M330.978 287.192 C 331.545 287.407,334.302 288.037,337.104 288.592 C 341.571 289.476,342.323 289.742,343.200 290.744 C 343.750 291.372,344.772 292.275,345.471 292.750 C 346.170 293.225,346.942 294.219,347.186 294.958 C 347.430 295.698,347.983 296.623,348.415 297.014 C 351.258 299.587,348.792 301.769,342.855 301.933 L 338.038 302.066 337.460 300.681 C 336.558 298.523,332.478 295.356,329.913 294.823 C 323.741 293.542,317.024 294.641,315.107 297.246 C 314.608 297.923,313.723 298.726,313.141 299.028 C 312.071 299.584,310.400 302.463,310.400 303.751 C 310.400 304.136,309.869 305.564,309.220 306.925 C 307.030 311.519,307.371 319.674,309.956 324.541 C 310.640 325.828,311.200 327.100,311.200 327.368 C 311.200 328.503,315.785 332.738,317.497 333.186 C 318.431 333.430,319.643 334.113,320.191 334.704 C 321.569 336.190,330.854 337.037,333.948 335.958 C 337.458 334.735,339.205 325.304,336.631 321.478 C 335.414 319.672,334.144 319.195,329.700 318.878 L 325.800 318.600 325.800 316.207 L 325.800 313.814 327.400 313.537 C 330.315 313.033,345.679 313.032,347.453 313.536 C 349.806 314.204,350.000 315.303,350.000 327.937 L 350.000 338.319 347.500 339.640 C 341.631 342.741,342.773 342.505,332.775 342.684 C 321.298 342.890,315.428 342.405,313.313 341.076 C 311.800 340.125,307.262 338.400,306.272 338.400 C 305.984 338.400,305.452 337.778,305.089 337.018 C 304.727 336.258,303.885 335.354,303.219 335.010 C 302.553 334.665,301.664 333.712,301.243 332.892 C 300.822 332.071,300.016 330.969,299.451 330.441 C 295.990 327.212,295.323 304.443,298.569 300.353 C 299.026 299.778,300.072 298.209,300.893 296.867 C 301.778 295.420,302.899 294.162,303.649 293.775 C 304.344 293.415,305.631 292.431,306.509 291.587 C 309.457 288.755,326.865 285.628,330.978 287.192 M53.472 289.045 C 54.910 289.430,54.939 289.837,55.022 310.900 C 55.107 332.354,55.065 331.871,56.962 332.887 C 57.967 333.425,67.175 334.117,73.961 334.165 L 78.923 334.200 80.060 336.043 C 81.672 338.654,81.861 339.977,80.797 341.203 L 79.933 342.200 63.102 342.327 C 44.637 342.466,44.744 342.474,44.061 340.975 C 43.085 338.832,42.495 296.579,43.373 291.663 C 43.817 289.173,48.970 287.837,53.472 289.045 M194.145 289.585 C 194.722 290.162,194.942 337.469,194.378 339.635 C 193.449 343.201,186.436 343.125,182.200 339.502 C 181.739 339.108,181.475 306.265,181.852 296.311 L 182.090 290.021 183.945 289.425 C 186.111 288.729,193.403 288.843,194.145 289.585 " stroke="none" fill="#71c5ce" fill-rule="evenodd"></path></g></svg>