<svg id="svg" version="1.1" xmlns="http://www.w3.org/2000/svg" xmlns:xlink="http://www.w3.org/1999/xlink" width="400" height="400" viewBox="0, 0, 400,400"><g id="svgg"><path id="path0" d="M0.000 200.000 L 0.000 400.000 200.000 400.000 L 400.000 400.000 400.000 200.000 L 400.000 0.000 200.000 0.000 L 0.000 0.000 0.000 200.000 M387.425 12.426 L 388.600 13.653 388.686 105.681 C 388.764 188.663,388.835 197.898,389.409 199.628 C 389.985 201.363,390.043 210.393,390.012 293.656 C 389.973 395.803,390.210 386.916,387.471 388.958 L 386.341 389.800 200.232 389.902 L 14.123 390.003 12.798 389.102 C 12.070 388.606,11.144 387.750,10.742 387.200 C 9.710 385.789,9.563 202.138,10.591 198.400 C 11.122 196.466,11.196 185.157,11.195 104.945 L 11.195 13.690 12.358 12.445 L 13.521 11.200 199.886 11.200 L 386.250 11.200 387.425 12.426 M79.180 188.945 C 76.689 190.117,76.038 192.805,76.938 198.200 C 77.305 200.400,77.604 202.944,77.603 203.854 C 77.599 206.180,78.777 209.567,79.831 210.257 C 80.949 210.990,318.253 211.121,319.619 210.390 C 321.211 209.538,322.429 204.704,323.044 196.800 C 323.316 193.292,322.459 190.374,320.790 189.131 C 319.213 187.956,81.670 187.773,79.180 188.945 " stroke="none" fill="#f6eef0" fill-rule="evenodd"></path><path id="path1" d="M24.000 11.532 C 24.000 12.013,28.091 12.079,28.800 11.610 C 29.228 11.326,28.626 11.210,26.700 11.206 C 25.215 11.203,24.000 11.349,24.000 11.532 M58.340 11.700 C 59.076 12.436,380.055 12.436,380.300 11.700 C 380.433 11.301,348.026 11.200,219.153 11.200 C 90.103 11.200,57.940 11.300,58.340 11.700 M17.844 17.876 L 15.557 20.200 15.745 24.600 C 15.848 27.020,16.130 30.440,16.372 32.200 C 16.792 35.247,16.726 39.557,16.102 50.000 C 15.951 52.530,15.790 85.560,15.745 123.400 C 15.700 161.240,15.619 192.650,15.566 193.200 C 15.337 195.563,15.528 195.859,18.020 196.977 C 20.396 198.043,20.532 198.057,25.320 197.732 C 28.004 197.549,38.705 197.438,49.101 197.486 C 72.329 197.591,71.380 197.794,72.870 192.400 C 73.386 190.532,73.459 190.204,73.581 189.200 C 73.670 188.468,74.785 191.904,74.794 192.937 C 74.797 193.342,75.160 194.131,75.600 194.691 L 76.400 195.708 76.400 194.727 C 76.400 190.058,78.799 188.010,84.296 187.987 L 87.400 187.974 85.272 187.239 C 81.861 186.061,81.675 185.209,84.507 183.745 C 85.986 182.980,81.535 183.008,185.000 183.109 C 231.420 183.155,279.030 183.098,290.800 182.984 C 314.265 182.756,316.426 182.884,317.896 184.593 L 318.849 185.701 317.547 186.788 L 316.246 187.874 317.988 188.108 C 321.300 188.552,323.133 191.163,323.178 195.500 C 323.203 197.911,323.154 197.880,325.153 196.730 L 326.664 195.860 334.232 196.735 C 344.988 197.977,379.176 198.047,381.851 196.833 C 384.102 195.810,383.933 202.148,383.946 118.600 C 383.958 46.373,384.056 39.589,385.194 32.000 C 385.408 30.570,385.593 29.220,385.604 29.000 C 385.682 27.467,386.347 30.437,386.571 33.314 C 386.721 35.247,387.104 38.188,387.422 39.850 C 387.740 41.511,388.000 42.945,388.000 43.035 C 388.000 43.126,388.180 43.200,388.400 43.200 C 388.657 43.200,388.800 39.105,388.800 31.714 C 388.800 21.666,388.727 20.302,388.219 20.814 C 387.631 21.407,386.400 25.537,386.400 26.917 C 386.400 28.422,385.422 27.287,384.896 25.173 C 384.599 23.978,384.191 22.370,383.988 21.600 C 383.786 20.830,382.761 19.247,381.710 18.081 L 379.800 15.962 219.035 15.990 C 122.572 16.006,53.856 16.174,47.235 16.409 C 39.301 16.690,35.132 16.673,32.400 16.349 C 30.310 16.101,26.695 15.820,24.366 15.725 L 20.131 15.552 17.844 17.876 M11.452 24.500 C 11.133 25.690,11.130 29.803,11.449 29.485 C 11.670 29.264,11.986 23.600,11.777 23.600 C 11.731 23.600,11.585 24.005,11.452 24.500 M388.220 53.300 C 387.536 55.501,387.425 68.240,387.600 124.480 C 387.758 175.155,387.906 188.866,388.300 189.260 C 388.700 189.660,388.800 176.064,388.800 121.280 C 388.800 83.616,388.704 52.800,388.587 52.800 C 388.471 52.800,388.305 53.025,388.220 53.300 M11.203 126.148 C 11.211 180.436,11.317 194.828,11.707 194.700 C 13.437 194.129,13.273 59.736,11.539 57.817 C 11.344 57.601,11.198 87.443,11.203 126.148 " stroke="none" fill="#e30427" fill-rule="evenodd"></path><path id="path2" d="M33.571 202.554 C 33.445 202.685,29.069 202.864,23.848 202.952 C 18.626 203.040,14.229 203.237,14.077 203.390 C 13.925 203.542,13.800 244.148,13.800 293.626 L 13.800 383.584 15.108 384.892 L 16.415 386.200 198.508 386.315 C 298.658 386.379,381.140 386.326,381.800 386.199 C 382.460 386.071,383.720 385.331,384.600 384.554 L 386.200 383.142 386.275 298.152 C 386.316 251.408,386.226 211.056,386.075 208.481 L 385.800 203.800 383.800 203.274 C 382.238 202.864,377.160 202.776,360.600 202.874 C 348.940 202.943,336.496 202.838,332.946 202.641 L 326.492 202.281 325.992 203.214 C 325.643 203.867,325.570 205.139,325.747 207.453 C 326.126 212.374,325.848 212.766,320.718 214.549 C 318.073 215.469,317.983 215.473,314.118 214.863 C 310.306 214.261,140.470 213.826,126.400 214.382 C 123.870 214.482,115.500 214.411,107.800 214.225 C 95.358 213.924,93.590 213.959,91.911 214.535 C 90.404 215.052,89.597 215.103,87.929 214.787 C 86.271 214.472,85.438 214.522,83.914 215.028 C 82.103 215.630,81.893 215.623,80.296 214.904 C 79.363 214.484,77.795 213.884,76.810 213.570 C 74.547 212.849,73.044 210.568,73.663 208.792 C 73.873 208.189,73.990 206.729,73.923 205.548 L 73.800 203.400 72.000 202.983 C 70.795 202.704,67.157 202.678,61.000 202.905 C 52.124 203.233,41.184 203.083,36.200 202.565 C 34.880 202.428,33.697 202.423,33.571 202.554 " stroke="none" fill="#040404" fill-rule="evenodd"></path><path id="path3" d="M12.350 12.453 L 11.179 13.707 11.243 19.353 C 11.279 22.459,11.430 24.658,11.580 24.241 C 11.730 23.823,11.771 24.723,11.673 26.241 C 11.294 32.080,11.184 57.299,11.535 57.741 C 13.022 59.612,13.464 193.405,11.987 194.532 C 9.897 196.126,9.951 193.458,9.982 293.654 C 10.015 397.293,9.711 387.000,12.798 389.102 L 14.123 390.003 200.232 389.902 L 386.341 389.800 387.471 388.958 C 390.211 386.916,389.974 395.813,390.009 293.582 C 390.039 207.814,389.994 201.275,389.362 199.600 C 388.906 198.389,388.668 196.490,388.638 193.800 C 388.611 191.458,388.388 189.441,388.101 188.935 C 387.081 187.139,387.432 53.598,388.458 52.964 C 388.937 52.668,388.892 43.298,388.411 43.133 C 387.897 42.957,386.912 37.707,386.571 33.314 C 386.347 30.437,385.682 27.467,385.604 29.000 C 385.593 29.220,385.408 30.570,385.194 32.000 C 384.056 39.589,383.958 46.373,383.946 118.600 C 383.933 202.148,384.102 195.810,381.851 196.833 C 379.180 198.045,344.989 197.977,334.255 196.737 L 326.710 195.866 324.983 196.809 C 323.051 197.865,322.694 198.749,322.177 203.772 C 321.853 206.914,320.735 209.793,319.602 210.399 C 318.251 211.122,80.936 210.981,79.831 210.257 C 78.744 209.545,77.600 206.160,77.600 203.654 C 77.599 200.736,76.554 196.005,75.636 194.764 C 75.176 194.142,74.797 193.310,74.794 192.916 C 74.785 191.897,73.668 188.477,73.581 189.200 C 73.459 190.204,73.386 190.532,72.870 192.400 C 71.380 197.794,72.329 197.591,49.101 197.486 C 38.705 197.438,28.004 197.549,25.320 197.732 C 20.532 198.057,20.396 198.043,18.020 196.977 C 15.528 195.859,15.337 195.563,15.566 193.200 C 15.619 192.650,15.700 161.240,15.745 123.400 C 15.790 85.560,15.951 52.530,16.102 50.000 C 16.726 39.557,16.792 35.247,16.372 32.200 C 16.130 30.440,15.848 27.020,15.745 24.600 L 15.557 20.200 17.844 17.876 L 20.131 15.552 24.366 15.725 C 26.695 15.820,30.310 16.101,32.400 16.349 C 35.132 16.673,39.301 16.690,47.235 16.409 C 53.856 16.174,122.572 16.006,219.035 15.990 L 379.800 15.962 381.710 18.081 C 382.761 19.247,383.786 20.830,383.988 21.600 C 384.191 22.370,384.599 23.978,384.896 25.173 C 385.422 27.287,386.400 28.422,386.400 26.917 C 386.400 25.522,387.632 21.428,388.261 20.732 C 389.427 19.444,388.871 13.936,387.423 12.424 C 386.048 10.989,380.743 10.530,380.254 11.804 C 379.933 12.641,59.318 12.528,58.309 11.690 C 57.709 11.192,33.297 11.231,26.500 11.741 C 25.125 11.844,24.000 11.764,24.000 11.564 C 24.000 11.364,21.643 11.200,18.760 11.200 L 13.521 11.200 12.350 12.453 M87.728 183.135 C 82.913 183.579,81.139 185.487,84.257 186.866 C 87.387 188.251,93.847 188.575,109.950 188.155 C 117.733 187.952,126.013 187.931,128.350 188.108 C 130.688 188.285,173.820 188.378,224.200 188.315 L 315.800 188.200 317.272 187.022 C 318.923 185.701,318.842 184.971,316.904 183.700 C 315.656 182.882,328.001 182.940,196.200 183.129 C 146.700 183.199,102.690 183.170,98.400 183.064 C 94.110 182.957,89.307 182.989,87.728 183.135 M43.000 200.194 C 56.640 200.198,69.178 200.059,70.863 199.887 L 73.927 199.573 74.804 200.806 C 75.431 201.686,75.830 203.169,76.199 205.989 C 76.801 210.595,76.845 210.691,78.749 211.493 C 80.874 212.389,319.020 212.320,320.754 211.424 C 322.501 210.520,322.865 209.811,323.224 206.609 C 324.007 199.625,324.440 199.370,334.493 199.980 C 339.736 200.298,350.336 200.427,364.499 200.345 C 389.670 200.199,387.142 199.761,388.025 204.422 C 388.527 207.077,388.646 382.241,388.147 385.066 C 388.024 385.762,387.476 386.752,386.930 387.266 L 385.936 388.200 200.533 388.302 C -0.006 388.413,13.433 388.546,12.116 386.437 C 11.431 385.340,11.303 204.352,11.985 202.600 C 12.924 200.193,13.907 199.557,16.174 199.890 C 17.288 200.055,29.360 200.191,43.000 200.194 " stroke="none" fill="#bc283a" fill-rule="evenodd"></path><path id="path4" d="M13.300 200.496 C 12.834 200.993,12.243 201.940,11.985 202.600 C 11.303 204.352,11.431 385.340,12.116 386.437 C 13.433 388.546,-0.006 388.413,200.533 388.302 L 385.936 388.200 386.930 387.266 C 387.476 386.752,388.024 385.762,388.147 385.066 C 388.646 382.241,388.527 207.077,388.025 204.422 C 387.142 199.761,389.670 200.199,364.499 200.345 C 350.336 200.427,339.736 200.298,334.493 199.980 C 324.440 199.370,324.007 199.625,323.224 206.609 C 322.865 209.811,322.501 210.520,320.754 211.424 C 319.020 212.320,80.874 212.389,78.749 211.493 C 76.845 210.691,76.801 210.595,76.199 205.989 C 75.830 203.169,75.431 201.686,74.804 200.806 L 73.927 199.573 70.863 199.887 C 66.964 200.286,18.878 200.289,16.174 199.890 C 14.373 199.625,14.052 199.693,13.300 200.496 M45.200 203.030 C 48.830 203.148,55.940 203.092,61.000 202.905 C 67.157 202.678,70.795 202.704,72.000 202.983 L 73.800 203.400 73.923 205.548 C 73.990 206.729,73.873 208.189,73.663 208.792 C 73.044 210.568,74.547 212.849,76.810 213.570 C 77.795 213.884,79.363 214.484,80.296 214.904 C 81.893 215.623,82.103 215.630,83.914 215.028 C 85.438 214.522,86.271 214.472,87.929 214.787 C 89.597 215.103,90.404 215.052,91.911 214.535 C 93.590 213.959,95.358 213.924,107.800 214.225 C 115.500 214.411,123.870 214.482,126.400 214.382 C 140.470 213.826,310.306 214.261,314.118 214.863 C 317.983 215.473,318.073 215.469,320.718 214.549 C 325.848 212.766,326.126 212.374,325.747 207.453 C 325.570 205.139,325.643 203.867,325.992 203.214 L 326.492 202.281 332.946 202.641 C 336.496 202.838,348.940 202.943,360.600 202.874 C 377.160 202.776,382.238 202.864,383.800 203.274 L 385.800 203.800 386.075 208.481 C 386.226 211.056,386.316 251.408,386.275 298.152 L 386.200 383.142 384.600 384.554 C 383.720 385.331,382.460 386.071,381.800 386.199 C 381.140 386.326,298.658 386.379,198.508 386.315 L 16.415 386.200 15.108 384.892 L 13.800 383.584 13.800 293.626 C 13.800 244.148,13.925 203.542,14.077 203.390 C 14.229 203.237,18.626 203.040,23.848 202.952 C 29.069 202.864,33.445 202.685,33.571 202.554 C 33.697 202.423,34.880 202.428,36.200 202.565 C 37.520 202.702,41.570 202.911,45.200 203.030 " stroke="none" fill="#242424" fill-rule="evenodd"></path></g></svg>